<svg width="221" height="170" viewBox="0 0 221 170" fill="none" xmlns="http://www.w3.org/2000/svg">
<circle cx="110.5" cy="80" r="80" fill="#E9D7FE"/>
<circle cx="26.5" cy="20" r="8" fill="#F4EBFF"/>
<circle cx="198.5" cy="126" r="6" fill="#F4EBFF"/>
<circle cx="25.5" cy="138" r="10" fill="#F4EBFF"/>
<circle cx="210.5" cy="46" r="10" fill="#F4EBFF"/>
<circle cx="191.5" cy="11" r="7" fill="#F4EBFF"/>
<g filter="url(#filter0_dd_796_23456)">
<path fill-rule="evenodd" clip-rule="evenodd" d="M113.986 16C97.2495 16 82.4448 24.2701 73.4354 36.9466C70.4934 36.2528 67.4253 35.8857 64.2714 35.8857C42.3063 35.8857 24.5 53.692 24.5 75.6571C24.5 97.6223 42.3063 115.429 64.2714 115.429H163.7C182.92 115.429 198.5 99.8481 198.5 80.6286C198.5 61.4091 182.92 45.8286 163.7 45.8286C162.335 45.8286 160.988 45.9072 159.664 46.0601C152.046 28.3784 134.461 16 113.986 16Z" fill="#F9F5FF"/>
<circle cx="64.2714" cy="75.6572" r="39.7714" fill="url(#paint0_linear_796_23456)"/>
<circle cx="113.986" cy="65.7143" r="49.7143" fill="url(#paint1_linear_796_23456)"/>
<circle cx="163.7" cy="80.6286" r="34.8" fill="url(#paint2_linear_796_23456)"/>
</g>
<defs>
<filter id="filter0_dd_796_23456" x="4.5" y="16" width="214" height="139.429" filterUnits="userSpaceOnUse" color-interpolation-filters="sRGB">
<feFlood flood-opacity="0" result="BackgroundImageFix"/>
<feColorMatrix in="SourceAlpha" type="matrix" values="0 0 0 0 0 0 0 0 0 0 0 0 0 0 0 0 0 0 127 0" result="hardAlpha"/>
<feMorphology radius="4" operator="erode" in="SourceAlpha" result="effect1_dropShadow_796_23456"/>
<feOffset dy="8"/>
<feGaussianBlur stdDeviation="4"/>
<feColorMatrix type="matrix" values="0 0 0 0 0.0627451 0 0 0 0 0.0941176 0 0 0 0 0.156863 0 0 0 0.03 0"/>
<feBlend mode="normal" in2="BackgroundImageFix" result="effect1_dropShadow_796_23456"/>
<feColorMatrix in="SourceAlpha" type="matrix" values="0 0 0 0 0 0 0 0 0 0 0 0 0 0 0 0 0 0 127 0" result="hardAlpha"/>
<feMorphology radius="4" operator="erode" in="SourceAlpha" result="effect2_dropShadow_796_23456"/>
<feOffset dy="20"/>
<feGaussianBlur stdDeviation="12"/>
<feColorMatrix type="matrix" values="0 0 0 0 0.0627451 0 0 0 0 0.0941176 0 0 0 0 0.156863 0 0 0 0.08 0"/>
<feBlend mode="normal" in2="effect1_dropShadow_796_23456" result="effect2_dropShadow_796_23456"/>
<feBlend mode="normal" in="SourceGraphic" in2="effect2_dropShadow_796_23456" result="shape"/>
</filter>
<linearGradient id="paint0_linear_796_23456" x1="33.7326" y1="49.3796" x2="104.043" y2="115.429" gradientUnits="userSpaceOnUse">
<stop stop-color="#E9D7FE"/>
<stop offset="0.350715" stop-color="white" stop-opacity="0"/>
</linearGradient>
<linearGradient id="paint1_linear_796_23456" x1="75.8122" y1="32.8673" x2="163.7" y2="115.428" gradientUnits="userSpaceOnUse">
<stop stop-color="#E9D7FE"/>
<stop offset="0.350715" stop-color="white" stop-opacity="0"/>
</linearGradient>
<linearGradient id="paint2_linear_796_23456" x1="136.979" y1="57.6358" x2="198.5" y2="115.429" gradientUnits="userSpaceOnUse">
<stop stop-color="#E9D7FE"/>
<stop offset="0.350715" stop-color="white" stop-opacity="0"/>
</linearGradient>
</defs>
</svg>
