<svg width="31" height="38" viewBox="0 0 31 38" fill="none" xmlns="http://www.w3.org/2000/svg">
<path d="M29.6938 36.3591C29.671 36.2802 29.1007 34.3729 27.6931 31.8508C26.3963 29.5292 24.1024 26.208 20.5442 23.5806L19.1007 25.5734C22.2842 27.9245 24.3533 30.9136 25.5295 33.005C26.0607 33.952 26.4647 34.8004 26.7514 35.4877H20.0782C18.524 31.7423 15.2037 28.7926 13.1346 27.2241C15.2786 26.0239 17.3184 24.4093 19.2245 22.4067C21.1763 20.3581 22.9912 17.8951 24.6237 15.0902C27.3868 10.3352 28.6543 6.26758 28.7097 6.09659L29.2018 4.49517H17.755L17.4846 5.35343C16.0574 9.84857 13.3399 13.2816 10.681 15.7446C9.84687 16.5173 7.93746 17.9971 7.79083 18.1023C5.70871 19.6018 3.76671 20.631 2.46009 21.2394V2.5156H8.23723V15.807C9.0225 15.2217 9.83058 14.5443 10.668 13.7748V0.0625H0V24.8368L1.63572 24.2613C1.77908 24.212 5.19714 22.9855 9.14306 20.1575C11.4663 18.4903 13.4963 16.6127 15.1744 14.564C17.087 12.2326 18.5468 9.66443 19.5211 6.97457H25.8065C25.207 8.52995 24.1252 11.0784 22.5155 13.8439C20.1206 17.9609 16.0509 23.3932 10.2444 25.9121L8.05802 26.8591L10.0978 28.0988C10.1597 28.1383 16.38 31.9659 18.0743 37.099L18.3513 37.9375H30.1597L29.6938 36.3558V36.3591Z" fill="url(#paint0_radial_796_25567)"/>
<defs>
<radialGradient id="paint0_radial_796_25567" cx="0" cy="0" r="1" gradientUnits="userSpaceOnUse" gradientTransform="translate(-2.63665e-06 39.6591) rotate(-52.5509) scale(61.3697 49.2448)">
<stop offset="0.21875" stopColor="#D900FB"/>
<stop offset="0.479167" stopColor="#5B67F0"/>
<stop offset="0.791667" stopColor="#01B2E8"/>
</radialGradient>
</defs>
</svg>
