<svg width="18" height="18" viewBox="0 0 18 18" fill="none" xmlns="http://www.w3.org/2000/svg">
<path d="M7.74964 10.2501L16.4996 1.50014M7.85596 10.5235L10.0461 16.1552C10.239 16.6513 10.3355 16.8994 10.4745 16.9718C10.595 17.0346 10.7385 17.0347 10.8591 16.972C10.9982 16.8998 11.0949 16.6518 11.2884 16.1559L16.7804 2.08281C16.9551 1.63516 17.0424 1.41133 16.9946 1.26831C16.9532 1.1441 16.8557 1.04663 16.7315 1.00514C16.5885 0.957356 16.3646 1.0447 15.917 1.21939L1.84386 6.71134C1.34796 6.90486 1.10001 7.00163 1.02775 7.14071C0.965115 7.26129 0.9652 7.40483 1.02798 7.52533C1.1004 7.66433 1.34846 7.7608 1.84458 7.95373L7.47625 10.1438C7.57696 10.183 7.62731 10.2026 7.66972 10.2328C7.7073 10.2596 7.74016 10.2925 7.76697 10.3301C7.79721 10.3725 7.8168 10.4228 7.85596 10.5235Z" stroke="white" stroke-width="1.66667" stroke-linecap="round" stroke-linejoin="round"/>
</svg>
